<mxfile host="app.diagrams.net" modified="2020-09-19T04:19:56.279Z" agent="5.0 (Windows NT 10.0; Win64; x64) AppleWebKit/537.36 (KHTML, like Gecko) Chrome/85.0.4183.102 Safari/537.36" etag="z0kpjx_f1r0g5afFTZuE" version="13.7.3" type="github">
  <diagram id="JvSfBq5KvNLxx1vOSjJO" name="Page-1">
    <mxGraphModel dx="1038" dy="585" grid="1" gridSize="10" guides="1" tooltips="1" connect="1" arrows="1" fold="1" page="1" pageScale="1" pageWidth="827" pageHeight="1169" math="0" shadow="0">
      <root>
        <mxCell id="0" />
        <mxCell id="1" parent="0" />
        <object label="&lt;font style=&quot;font-size: 18px&quot;&gt;&lt;font&gt;Star&lt;/font&gt;t&lt;/font&gt;" Start="" id="a6H54nHcvBli1Nq9G8E5-1">
          <mxCell style="ellipse;whiteSpace=wrap;html=1;" parent="1" vertex="1">
            <mxGeometry x="354" y="10" width="120" height="80" as="geometry" />
          </mxCell>
        </object>
        <mxCell id="a6H54nHcvBli1Nq9G8E5-2" value="" style="endArrow=classic;html=1;exitX=0.5;exitY=1;exitDx=0;exitDy=0;" parent="1" source="a6H54nHcvBli1Nq9G8E5-1" target="a6H54nHcvBli1Nq9G8E5-3" edge="1">
          <mxGeometry width="50" height="50" relative="1" as="geometry">
            <mxPoint x="414" y="110" as="sourcePoint" />
            <mxPoint x="414" y="160" as="targetPoint" />
          </mxGeometry>
        </mxCell>
        <mxCell id="a6H54nHcvBli1Nq9G8E5-9" value="" style="edgeStyle=orthogonalEdgeStyle;rounded=0;orthogonalLoop=1;jettySize=auto;html=1;exitX=0.5;exitY=1;exitDx=0;exitDy=0;" parent="1" source="a6H54nHcvBli1Nq9G8E5-3" target="a6H54nHcvBli1Nq9G8E5-5" edge="1">
          <mxGeometry relative="1" as="geometry">
            <Array as="points">
              <mxPoint x="415" y="190" />
            </Array>
          </mxGeometry>
        </mxCell>
        <mxCell id="a6H54nHcvBli1Nq9G8E5-3" value="&lt;font size=&quot;3&quot;&gt;r &amp;lt;-0.5, n &amp;lt;-[0:60], sum1&amp;lt;-0&lt;/font&gt;" style="rounded=0;whiteSpace=wrap;html=1;" parent="1" vertex="1">
          <mxGeometry x="330" y="120" width="170" height="70" as="geometry" />
        </mxCell>
        <mxCell id="a6H54nHcvBli1Nq9G8E5-4" value="" style="endArrow=classic;html=1;" parent="1" target="a6H54nHcvBli1Nq9G8E5-5" edge="1">
          <mxGeometry width="50" height="50" relative="1" as="geometry">
            <mxPoint x="413" y="200" as="sourcePoint" />
            <mxPoint x="413" y="240" as="targetPoint" />
            <Array as="points" />
          </mxGeometry>
        </mxCell>
        <mxCell id="a6H54nHcvBli1Nq9G8E5-5" value="&lt;font size=&quot;3&quot;&gt;Read sum1&lt;/font&gt;" style="shape=parallelogram;perimeter=parallelogramPerimeter;whiteSpace=wrap;html=1;fixedSize=1;" parent="1" vertex="1">
          <mxGeometry x="335" y="210" width="160" height="70" as="geometry" />
        </mxCell>
        <mxCell id="a6H54nHcvBli1Nq9G8E5-7" value="" style="endArrow=classic;html=1;" parent="1" target="a6H54nHcvBli1Nq9G8E5-8" edge="1">
          <mxGeometry width="50" height="50" relative="1" as="geometry">
            <mxPoint x="414" y="280" as="sourcePoint" />
            <mxPoint x="414" y="330" as="targetPoint" />
          </mxGeometry>
        </mxCell>
        <mxCell id="a6H54nHcvBli1Nq9G8E5-8" value="&lt;font size=&quot;3&quot;&gt;Is sum1 &amp;lt; 1.995?&lt;/font&gt;" style="rhombus;whiteSpace=wrap;html=1;" parent="1" vertex="1">
          <mxGeometry x="340" y="310" width="150" height="110" as="geometry" />
        </mxCell>
        <mxCell id="a6H54nHcvBli1Nq9G8E5-12" value="" style="endArrow=classic;html=1;exitX=1;exitY=0.5;exitDx=0;exitDy=0;" parent="1" source="a6H54nHcvBli1Nq9G8E5-8" target="a6H54nHcvBli1Nq9G8E5-13" edge="1">
          <mxGeometry width="50" height="50" relative="1" as="geometry">
            <mxPoint x="490" y="370" as="sourcePoint" />
            <mxPoint x="570" y="365" as="targetPoint" />
          </mxGeometry>
        </mxCell>
        <mxCell id="a6H54nHcvBli1Nq9G8E5-13" value="&lt;font size=&quot;3&quot;&gt;Print Sum&lt;/font&gt;" style="shape=parallelogram;perimeter=parallelogramPerimeter;whiteSpace=wrap;html=1;fixedSize=1;" parent="1" vertex="1">
          <mxGeometry x="530" y="335" width="130" height="60" as="geometry" />
        </mxCell>
        <mxCell id="a6H54nHcvBli1Nq9G8E5-14" value="" style="endArrow=classic;html=1;exitX=0.5;exitY=1;exitDx=0;exitDy=0;" parent="1" source="a6H54nHcvBli1Nq9G8E5-13" target="a6H54nHcvBli1Nq9G8E5-15" edge="1">
          <mxGeometry width="50" height="50" relative="1" as="geometry">
            <mxPoint x="580" y="470" as="sourcePoint" />
            <mxPoint x="595" y="460" as="targetPoint" />
          </mxGeometry>
        </mxCell>
        <mxCell id="a6H54nHcvBli1Nq9G8E5-15" value="&lt;font size=&quot;3&quot;&gt;End&lt;/font&gt;" style="ellipse;whiteSpace=wrap;html=1;" parent="1" vertex="1">
          <mxGeometry x="535" y="420" width="120" height="80" as="geometry" />
        </mxCell>
        <mxCell id="a6H54nHcvBli1Nq9G8E5-16" value="" style="endArrow=classic;html=1;entryX=0;entryY=0.5;entryDx=0;entryDy=0;" parent="1" target="a6H54nHcvBli1Nq9G8E5-8" edge="1">
          <mxGeometry width="50" height="50" relative="1" as="geometry">
            <mxPoint x="210" y="365" as="sourcePoint" />
            <mxPoint x="260" y="330" as="targetPoint" />
          </mxGeometry>
        </mxCell>
        <mxCell id="a6H54nHcvBli1Nq9G8E5-17" value="" style="endArrow=classic;html=1;" parent="1" edge="1">
          <mxGeometry width="50" height="50" relative="1" as="geometry">
            <mxPoint x="210" y="505" as="sourcePoint" />
            <mxPoint x="210" y="360" as="targetPoint" />
          </mxGeometry>
        </mxCell>
        <mxCell id="a6H54nHcvBli1Nq9G8E5-18" value="" style="endArrow=classic;html=1;exitX=0.5;exitY=1;exitDx=0;exitDy=0;" parent="1" source="a6H54nHcvBli1Nq9G8E5-8" target="a6H54nHcvBli1Nq9G8E5-19" edge="1">
          <mxGeometry width="50" height="50" relative="1" as="geometry">
            <mxPoint x="390" y="600" as="sourcePoint" />
            <mxPoint x="415" y="510" as="targetPoint" />
          </mxGeometry>
        </mxCell>
        <mxCell id="a6H54nHcvBli1Nq9G8E5-19" value="&lt;font style=&quot;font-size: 18px&quot;&gt;Sum1 &amp;lt;-sum1 + A(k)&lt;/font&gt;" style="rounded=0;whiteSpace=wrap;html=1;" parent="1" vertex="1">
          <mxGeometry x="330" y="500" width="170" height="90" as="geometry" />
        </mxCell>
        <mxCell id="a6H54nHcvBli1Nq9G8E5-20" value="&lt;font style=&quot;font-size: 18px&quot;&gt;A&amp;nbsp; &amp;lt;-- r^n&lt;/font&gt;" style="rounded=1;whiteSpace=wrap;html=1;fillColor=#d5e8d4;strokeColor=#82b366;" parent="1" vertex="1">
          <mxGeometry x="560" y="120" width="180" height="60" as="geometry" />
        </mxCell>
        <mxCell id="a6H54nHcvBli1Nq9G8E5-22" value="" style="endArrow=classic;html=1;exitX=0.5;exitY=1;exitDx=0;exitDy=0;" parent="1" source="a6H54nHcvBli1Nq9G8E5-19" target="a6H54nHcvBli1Nq9G8E5-23" edge="1">
          <mxGeometry width="50" height="50" relative="1" as="geometry">
            <mxPoint x="430" y="635" as="sourcePoint" />
            <mxPoint x="415" y="630" as="targetPoint" />
          </mxGeometry>
        </mxCell>
        <mxCell id="a6H54nHcvBli1Nq9G8E5-23" value="&lt;font style=&quot;font-size: 18px&quot;&gt;K &amp;lt;- K + 1&lt;/font&gt;" style="rounded=0;whiteSpace=wrap;html=1;" parent="1" vertex="1">
          <mxGeometry x="340" y="670" width="150" height="60" as="geometry" />
        </mxCell>
        <mxCell id="a6H54nHcvBli1Nq9G8E5-24" value="&lt;font style=&quot;font-size: 18px&quot;&gt;K can be known as order of elements in the maxtrix 1x60(A)&lt;/font&gt;" style="rounded=1;whiteSpace=wrap;html=1;fillColor=#d5e8d4;strokeColor=#82b366;" parent="1" vertex="1">
          <mxGeometry x="550" y="525" width="250" height="60" as="geometry" />
        </mxCell>
      </root>
    </mxGraphModel>
  </diagram>
</mxfile>
